<svg width="32" height="32" viewBox="0 0 32 32" fill="none" xmlns="http://www.w3.org/2000/svg">
<path d="M28.6669 24L19.8098 16M12.1908 16L3.33371 24M2.66699 9.33331L13.5536 16.9539C14.4351 17.571 14.8759 17.8795 15.3553 17.9991C15.7789 18.1046 16.2218 18.1046 16.6453 17.9991C17.1248 17.8795 17.5655 17.571 18.4471 16.9539L29.3337 9.33331M9.06699 26.6666H22.9337C25.1739 26.6666 26.294 26.6666 27.1496 26.2307C27.9023 25.8472 28.5142 25.2353 28.8977 24.4826C29.3337 23.627 29.3337 22.5069 29.3337 20.2666V11.7333C29.3337 9.4931 29.3337 8.373 28.8977 7.51735C28.5142 6.7647 27.9023 6.15278 27.1496 5.76929C26.294 5.33331 25.1739 5.33331 22.9337 5.33331H9.06699C6.82678 5.33331 5.70668 5.33331 4.85103 5.76929C4.09838 6.15278 3.48646 6.7647 3.10297 7.51735C2.66699 8.373 2.66699 9.4931 2.66699 11.7333V20.2666C2.66699 22.5069 2.66699 23.627 3.10297 24.4826C3.48646 25.2353 4.09838 25.8472 4.85103 26.2307C5.70668 26.6666 6.82678 26.6666 9.06699 26.6666Z" stroke="white" stroke-width="2" stroke-linecap="round" stroke-linejoin="round"/>
</svg>
