<svg width="16" height="16" viewBox="0 0 16 16" fill="none" xmlns="http://www.w3.org/2000/svg">
<path fill-rule="evenodd" clip-rule="evenodd" d="M8.63983 14.0308C8.42758 14.2412 8.21395 14.4531 8.00033 14.6667C7.7867 14.4531 7.57307 14.2412 7.36082 14.0308C4.92352 11.6139 2.66699 9.37626 2.66699 6.66671C2.66699 3.72119 5.05481 1.33337 8.00033 1.33337C10.9458 1.33337 13.3337 3.72119 13.3337 6.66671C13.3337 9.37626 11.0771 11.6139 8.63983 14.0308ZM10 6.66675C10 7.77132 9.10457 8.66675 8 8.66675C6.89543 8.66675 6 7.77132 6 6.66675C6 5.56218 6.89543 4.66675 8 4.66675C9.10457 4.66675 10 5.56218 10 6.66675Z" fill="#F45928"/>
</svg>
