<svg width="32" height="32" viewBox="0 0 32 32" fill="none" xmlns="http://www.w3.org/2000/svg">
<path d="M20.0003 2.66669V4.53335C20.0003 5.28009 20.0003 5.65346 19.855 5.93867C19.7272 6.18956 19.5232 6.39353 19.2723 6.52136C18.9871 6.66669 18.6137 6.66669 17.867 6.66669H14.1337C13.3869 6.66669 13.0136 6.66669 12.7283 6.52136C12.4775 6.39353 12.2735 6.18956 12.1457 5.93867C12.0003 5.65346 12.0003 5.28009 12.0003 4.53335V2.66669M10.9337 29.3334H21.067C22.5605 29.3334 23.3072 29.3334 23.8776 29.0427C24.3794 28.787 24.7873 28.3791 25.043 27.8773C25.3337 27.3069 25.3337 26.5602 25.3337 25.0667V6.93335C25.3337 5.43988 25.3337 4.69314 25.043 4.12271C24.7873 3.62095 24.3794 3.213 23.8776 2.95734C23.3072 2.66669 22.5605 2.66669 21.067 2.66669H10.9337C9.44019 2.66669 8.69345 2.66669 8.12302 2.95734C7.62125 3.213 7.2133 3.62095 6.95764 4.12271C6.66699 4.69314 6.66699 5.43988 6.66699 6.93335V25.0667C6.66699 26.5602 6.66699 27.3069 6.95764 27.8773C7.2133 28.3791 7.62125 28.787 8.12302 29.0427C8.69345 29.3334 9.44019 29.3334 10.9337 29.3334Z" stroke="white" stroke-width="2" stroke-linecap="round" stroke-linejoin="round"/>
</svg>
